<?xml version="1.0" encoding="utf-8"?>
<!-- Generator: Adobe Illustrator 27.8.1, SVG Export Plug-In . SVG Version: 6.00 Build 0)  -->
<svg version="1.1" id="Ebene_1" xmlns="http://www.w3.org/2000/svg" xmlns:xlink="http://www.w3.org/1999/xlink" x="0px" y="0px"
	 viewBox="0 0 860.2 860.2" style="enable-background:new 0 0 860.2 860.2;" xml:space="preserve">
<style type="text/css">
	.st0{fill:#C11818;}
	.st1{fill:#FFFFFF;stroke:#FFFFFF;}
	.st2{fill:#FFFFFF;}
</style>
<path class="st0" d="M86,0h688.1c47.5,0,86,38.5,86,86v688.1c0,47.5-38.5,86-86,86H86c-47.5,0-86-38.5-86-86V86C0,38.5,38.5,0,86,0z
	"/>
<g>
	<path class="st1" d="M134.9,223.1v416c0,26.5,27.9,48,62.4,48h457.8c34.5,0,62.4-21.5,62.4-48v-416c0-26.5-27.9-48-62.4-48H197.3
		C162.8,175.1,134.9,196.6,134.9,223.1z M634.3,463.1v160H220.5v-160H634.3z M634.3,239.1v160H220.5v-160H634.3z"/>
</g>
<polygon class="st2" points="413.1,265.7 610.7,263.6 514,374.6 "/>
</svg>
